<svg width="101" height="100" viewBox="0 0 101 100" fill="none" xmlns="http://www.w3.org/2000/svg">
<path d="M45.6769 36.5621V36.5621C46.1478 39.0809 44.0533 41.3394 41.5063 41.0595L13.1364 37.9418C10.6896 37.6729 9.5674 34.7533 11.2041 32.9148V32.9148M45.6769 36.5621L41.6731 15.1458C40.8755 10.8793 35.6285 9.24535 32.5496 12.3046L29.8979 14.9394L19.0679 4.588C17.534 3.1219 15.1099 3.14936 13.6096 4.64982L4.97261 13.2879M45.6769 36.5621C47.1815 44.6104 40.6898 46.2221 37.2559 46.0219L15.1085 43.6194C9.92771 42.7185 8.50143 35.9507 11.2041 32.9148M11.2041 32.9148L12.4804 31.4813M12.4804 31.4813L15.1085 28.5292L5.01232 18.8999C3.42595 17.3869 3.42258 14.8381 4.97261 13.2879V13.2879M12.4804 31.4813L4.97261 24.6999C3.1207 22.748 0.52803 17.733 4.97261 13.2879" stroke="#1C1B20" stroke-linecap="round"/>
<path d="M42.4546 73.651L45.4315 57.7276C46.024 54.5582 43.3885 51.7162 40.1835 52.0684L14.24 54.9195C11.3301 55.2392 9.99553 58.7114 11.942 60.8978L15.1074 64.4534L5.46389 73.651M42.4546 73.651L41.6721 77.8368C40.8745 82.1033 35.6275 83.7373 32.5486 80.678L29.8969 78.0433L19.0668 88.3946C17.5329 89.8607 15.1089 89.8333 13.6086 88.3328L4.94505 79.6682C3.39502 78.118 3.42493 75.5957 5.0113 74.0827L5.46389 73.651M42.4546 73.651C39.4229 89.8678 34.3214 89.8927 32.1497 87.878L29.8969 85.6634L20.7213 94.1797C18.2514 96.4722 14.4155 96.4179 12.0116 94.0563L5.7224 87.878C3.34778 85.3183 -0.0283822 78.8893 5.46389 73.651" stroke="#1C1B20" stroke-linecap="round"/>
<path d="M89.3933 32.6572V32.6572C91.1259 34.6033 89.9379 37.6938 87.3479 37.9784L60.2307 40.9584C57.2302 41.2882 54.7628 38.6275 55.3175 35.6603V35.6603M89.3933 32.6572C93.294 36.8615 90.5608 42.8677 84.5174 43.9188L63.6831 46.1711C59.3286 46.7717 54.0306 42.5439 55.3175 35.6603M89.3933 32.6572L88.5912 31.7562M55.3175 35.6603L59.1528 15.1449C59.9505 10.8784 65.1975 9.24442 68.2764 12.3037L70.9281 14.9384L81.7581 4.58707C83.292 3.12097 85.716 3.14843 87.2163 4.64889L96.4168 13.8505M88.5912 31.7562L85.7175 28.5283L96.3632 18.3749C97.6482 17.1493 97.6724 15.1062 96.4168 13.8505V13.8505M88.5912 31.7562L96.4168 24.699C98.2688 22.9349 100.861 18.2956 96.4168 13.8505" stroke="#1C1B20" stroke-linecap="round"/>
<path d="M95.9659 74.228V74.228C97.4685 75.6611 97.4968 78.0502 96.0286 79.5185L87.2158 88.3324C85.7155 89.8328 83.2915 89.8603 81.7576 88.3942L70.9275 78.0428L68.2759 80.6776C65.1969 83.7368 59.9499 82.1029 59.1523 77.8364L59.0716 77.4046M95.9659 74.228L85.717 64.453L88.8824 60.8974C90.8289 58.711 89.4943 55.2388 86.5844 54.919L60.6409 52.0679C57.4359 51.7157 54.8004 54.5577 55.3929 57.7271L59.0716 77.4046M95.9659 74.228C99.4495 77.5505 99.2693 84.3116 95.9659 87.1646L88.724 93.1482C86.3087 95.1439 82.7945 95.0637 80.4726 92.96L70.9275 84.3116L68.7879 86.4138C66.5222 88.6161 61.4071 89.8974 59.0716 77.4046" stroke="#1C1B20" stroke-linecap="round"/>
</svg>
