<svg width="101" height="100" viewBox="0 0 101 100" fill="none" xmlns="http://www.w3.org/2000/svg">
<path d="M7.70482 39.2402H4.09036M7.70482 39.2402L14.5 26.537M7.70482 39.2402V42.0551M7.70482 47.0354L3.22289 52.3766V55.9134M7.70482 47.0354V42.0551M7.70482 47.0354L10.8133 43.4265M12.3313 76.6286L7.70482 74.8241V58.8005H3.22289V55.9134M12.3313 76.6286V52.5932L16.741 47.8172M12.3313 76.6286L14.1386 75.185L16.741 74.9685M16.741 47.8172L18.9819 47.9391M16.741 47.8172V50.6444V74.9685M65.9699 51.2218L18.9819 47.9391M65.9699 51.2218V58.584M65.9699 51.2218L68.9337 51.2795M63.5843 53.315V53L58.8855 52.6745L18.9819 50.6444M63.5843 53.315L54.6928 55.0472M63.5843 53.315V71.5M18.9819 50.6444V47.9391M18.9819 50.6444V52.0879V53.5315M54.6928 55.0472L53.3916 54.992H52.5M54.6928 55.0472V71.5M18.9819 53.5315L52.5 54.992M18.9819 53.5315V74.752M54.6928 73.3655V71.5M54.6928 73.3655L55.1988 73.5M54.6928 73.3655L50.6446 72.6866M52.5 54.992V71.5L50.6446 72.6588V72.6866M4.09036 39.2402L2.5 37.6522L8.57229 23M4.09036 39.2402L10.3795 26.0315M8.57229 23L10.3795 26.0315M8.57229 23L56.0663 28.9186M10.3795 26.0315L56.8614 31.7336M56.8614 31.7336L61.4879 29.2073M56.8614 31.7336L56.0663 28.9186M56.8614 31.7336V45.664M56.8614 31.7336L45.1506 30.297M61.4879 29.2073L60.8373 26.1037M61.4879 29.2073L96.9819 34.0433M61.4879 29.2073L66.1145 29.8377M61.4879 29.2073V46.2415M60.8373 26.1037L56.0663 28.9186M60.8373 26.1037L69.1506 27.3464M96.9819 34.0433L98.5 31.7336L74.7892 28.1892L72.3313 27.8218M96.9819 34.0433L91.2711 35.7034M72.3313 27.8218L69.1506 27.3464M72.3313 27.8218V23.7218M75.0783 28.2325V24.1549L72.3313 23.7218M72.3313 23.7218L69.1506 25.4541V27.1142V27.3464M91.2711 35.7034V33.2652L87.8735 32.8023V50.7887M91.2711 35.7034V73.3084H87.8735M77.5361 31.3939L84.8373 32.3886V34.0433V50.7887M77.5361 31.3939L76.5964 31.2658M77.5361 31.3939V58.9449M76.5964 31.2658L68.9337 30.2218M76.5964 31.2658V37.3635M66.1145 29.8377V47.0213M66.1145 29.8377L68.9337 30.2218M22.6687 27.539L14.5 26.537M22.6687 27.539L26.7892 28.0445M22.6687 27.539V33.6824M14.5 26.537L14.2108 32.8885M14.2108 32.8885L7.70482 42.0551M14.2108 32.8885L22.6687 33.8268M22.6687 33.8268V38.8071M22.6687 33.8268V33.6824M87.8735 73.3084V55.4803M87.8735 73.3084H84.8373M84.8373 55.4803H86.8614H87.8735M84.8373 55.4803V73.3084M84.8373 55.4803V50.7887M87.8735 55.4803V50.7887M87.8735 50.7887H86.8614H84.8373M84.8373 73.3084H77.5361M69.7289 73.3084V75.5M69.7289 73.3084V73.0919M69.7289 73.3084H77.5361M69.7289 75.5H65.9699M69.7289 75.5L69.9458 76H70.741V77.5H65.9699M65.9699 75.5V77.5M65.9699 75.5V73.0919M65.9699 77.5V79.0157H64.3795L63.5843 78.4383V77.5M69.7289 73.0919H65.9699M69.7289 73.0919L65.9699 72.6588M65.9699 73.0919V72.6588M72.0764 50.0669L68.9337 51.2795M72.0764 50.0669L73.994 48.0459L68.9337 47.3879M72.0764 50.0669L76.5964 50.2835M10.8133 43.4265L12.9819 47.6129L3.22289 55.9134M10.8133 43.4265H22.6687M37.4879 29.357L39.8012 29.6408M37.4879 29.357L26.7892 28.0445M37.4879 29.357V35.2703M37.4879 44.1483L56.8614 45.664M37.4879 44.1483L26.7892 43.6272M37.4879 44.1483V35.2703M22.6687 43.4265V38.8071M22.6687 43.4265L26.7892 43.6272M56.8614 45.664L61.4879 46.2415M66.1145 47.0213L61.4879 46.2415M66.1145 47.0213L68.9337 47.3879M39.8012 29.6408L45.1506 30.297M39.8012 29.6408V35.5591M45.1506 30.297V36.0643M22.6687 38.8071L26.7892 39.168M26.7892 39.168V43.6272M26.7892 39.168V34.1239M26.7892 28.0445V34.1239M22.6687 33.6824L26.7892 34.1239M37.4879 35.2703L26.7892 34.1239M39.8012 35.5591V39.5289L45.1506 40.1063V36.0643M39.8012 35.5591L45.1506 36.0643M65.9699 58.584L68.9337 58.6765M65.9699 58.584V72.6588M77.5361 58.9449V73.3084M77.5361 58.9449L76.5964 58.9156M76.5964 58.9156L68.9337 58.6765M76.5964 58.9156V54.9675M68.9337 30.2218V36.5277M68.9337 47.3879V45.664M68.9337 51.2795V54.6142M68.9337 58.6765V54.6142M68.9337 54.6142L76.5964 54.9675M76.5964 54.9675V50.2835M76.5964 50.2835V46.2415M76.5964 46.2415L68.9337 45.664M76.5964 46.2415V41.7664M68.9337 45.664V41.0446M68.9337 41.0446L76.5964 41.7664M68.9337 41.0446V36.5277M76.5964 41.7664V37.3635M68.9337 36.5277L76.5964 37.3635M63.5843 75.5H55.1988M63.5843 75.5V73.5M63.5843 75.5V77.5M55.1988 75.5V73.5M55.1988 75.5L50.6446 74.5M55.1988 73.5H63.5843M63.5843 73.5V71.5M63.5843 77.5H55.1988L49.994 76.5V74.5M50.6446 74.5H49.994M50.6446 74.5V72.6866M49.994 74.5L18.9819 74.752M54.6928 71.5H63.5843M16.741 74.9685V78H18.9819V74.752" stroke="#1C1B20"/>
</svg>
