<svg width="101" height="100" viewBox="0 0 101 100" fill="none" xmlns="http://www.w3.org/2000/svg">
<path d="M11.348 36.2689C10.8676 36.2689 8.22549 36.2689 4.86275 36.2689C1.5 36.2689 1.5 37.9529 1.5 41.8019C1.5 45.651 4.62255 62.7312 6.06373 71.6321H17.8333M11.348 36.2689C8.46569 30.0141 20.2353 33.8632 22.1569 33.6227M11.348 36.2689C11.5233 37.1466 12.3381 40.202 13.6991 43.0047M22.1569 33.6227C27.9216 33.1415 32.0049 41.5613 32.9657 43.4859C33.7341 45.025 34.3488 46.4103 33.5813 47.3956M22.1569 33.6227C21.9967 32.8208 21.5804 30.784 21.1961 29.0519C20.7157 26.8868 20.7157 24.9623 23.598 24.7217C26.4804 24.4811 45.9363 24 47.8578 24C49.7794 24 50.5 24.7217 50.5 25.9245M33.5813 47.3956C33.3891 47.6423 33.1103 47.8639 32.7255 48.0566C29.1225 49.9812 25.7598 50.7029 22.6373 51.6651C19.5147 52.6274 17.8333 49.0189 15.4314 45.8915C14.7822 45.0463 14.2031 44.0428 13.6991 43.0047M33.5813 47.3956H48.3382M50.5 25.9245V45.0506M50.5 25.9245C50.5 24.7217 51.2206 24 53.1422 24C55.0637 24 74.5196 24.4811 77.402 24.7217C80.2843 24.9623 80.2843 26.8868 79.8039 29.0519C79.4196 30.784 79.0033 32.8208 78.8431 33.6227M17.8333 71.6321L16.4437 62.0094M17.8333 71.6321H19.0343M13.6991 43.0047L16.4437 62.0094M16.4437 62.0094H48.3382C49.7794 62.0094 50.5 61.5283 50.5 59.8443M19.5147 54.7925C26 53.8302 35.848 53.1085 46.1765 54.7925M48.3382 47.3956C49.7794 47.3956 50.5 48.2972 50.5 49.7406M48.3382 47.3956C49.7794 47.3956 50.5 46.494 50.5 45.0506M50.5 49.7406V59.8443M50.5 49.7406C50.5 48.2972 51.2206 47.3956 52.6618 47.3956M50.5 45.0506C50.5 46.494 51.2206 47.3956 52.6618 47.3956M50.5 59.8443C50.5 61.5283 51.2206 62.0094 52.6618 62.0094H84.5563M19.0343 71.6321L19.7549 75H23.1176V71.6321M19.0343 71.6321H23.1176M23.1176 71.6321H50.5H77.8824M89.652 36.2689H96.1373C99.5 36.2689 99.5 37.9529 99.5 41.8019C99.5 45.651 96.3775 62.7312 94.9363 71.6321H83.1667M89.652 36.2689C92.5343 30.0141 80.7647 33.8632 78.8431 33.6227M89.652 36.2689C89.4767 37.1466 88.6619 40.202 87.3009 43.0047M78.8431 33.6227C73.0784 33.1415 68.9951 41.5613 68.0343 43.4859C67.2659 45.025 66.6512 46.4103 67.4187 47.3956M67.4187 47.3956C67.6109 47.6423 67.8897 47.8639 68.2745 48.0566C71.8775 49.9812 75.2402 50.7029 78.3627 51.6651C81.4853 52.6274 83.1667 49.0189 85.5686 45.8915C86.2178 45.0463 86.7969 44.0428 87.3009 43.0047M67.4187 47.3956H52.6618M83.1667 71.6321L84.5563 62.0094M83.1667 71.6321H81.9657M87.3009 43.0047L84.5563 62.0094M81.4853 54.7925C75 53.8302 65.152 53.1085 54.8235 54.7925M81.9657 71.6321L81.2451 75H77.8824V71.6321M81.9657 71.6321H77.8824M34.4069 35.066C36.0882 35.066 36.5686 35.7877 36.5686 37.2311C36.5686 35.7877 37.049 35.066 38.7304 35.066C37.049 35.066 36.5686 34.3443 36.5686 32.9009C36.5686 34.3443 36.0882 35.066 34.4069 35.066ZM66.5931 35.066C64.9118 35.066 64.4314 35.7877 64.4314 37.2311C64.4314 35.7877 63.951 35.066 62.2696 35.066C63.951 35.066 64.4314 34.3443 64.4314 32.9009C64.4314 34.3443 64.9118 35.066 66.5931 35.066Z" stroke="#1C1B20" stroke-linecap="round"/>
</svg>
