<svg width="101" height="100" viewBox="0 0 101 100" fill="none" xmlns="http://www.w3.org/2000/svg">
<path d="M21.726 53.9574C21.726 47.3191 21.726 32.6043 21.726 26.8511C21.726 19.6596 27.8674 18 30.659 18C33.4505 18 38.4753 19.1064 41.2668 26.8511M21.726 53.9574H60.8077M21.726 53.9574H19.7332C18.9888 54.0496 17.4999 54.1234 17.4999 55.8936C17.4999 57.6638 18.9888 57.7376 19.7332 57.8298H21.726M41.2668 26.8511C44.3375 26.8511 48.5249 29.1191 48.5249 33.766H34.0088C34.0088 29.1191 38.1961 26.8511 41.2668 26.8511ZM60.8077 53.9574V52.5745H73.928V53.9574M60.8077 53.9574V57.8298M73.928 53.9574H82.0235C82.7679 54.0496 84.2567 54.1234 84.2567 55.8936C84.2567 57.6638 82.7679 57.7376 82.0235 57.8298H80.3485M73.928 53.9574V57.8298M73.928 57.8298H80.3485M73.928 57.8298V61.7021M80.3485 57.8298C80.3485 64.4681 81.7443 76.0851 67.7866 78.0213M67.7866 78.0213C63.7667 78.0213 44.3375 78.0213 34.288 78.0213M67.7866 78.0213C71.6948 78.0213 76.4404 81.8936 76.9987 83M34.288 78.0213C20.3302 76.0851 21.726 64.4681 21.726 57.8298M34.288 78.0213C30.3797 78.0213 25.6342 81.8936 25.0759 83M21.726 57.8298H60.8077M60.8077 57.8298V61.7021M60.8077 61.7021V66.6808H73.928V61.7021M60.8077 61.7021H73.928" stroke="#1C1B20"/>
</svg>
