<svg width="101" height="100" viewBox="0 0 101 100" fill="none" xmlns="http://www.w3.org/2000/svg">
<path fill-rule="evenodd" clip-rule="evenodd" d="M35.8094 1.25H36.3094H64.0237H64.5237V1.75V17.0997H90.4783H98.6666H99.1666V17.5997V98.75V99.25H98.6666H90.4783H17.4133H1.66656H1.16656V98.75V81.6324V81.6133L1.16801 81.5943C1.27795 80.1557 1.80177 78.0055 3.0328 76.1996C3.59999 75.3676 4.31998 74.6065 5.2168 74.0245H4.94578V17.5997V17.0997H5.44578H13.6341H35.8094V1.75V1.25ZM35.8094 18.0997H14.1341V25.3415H35.8094V18.0997ZM35.8094 26.3415H14.1341V32.9494H35.8094V26.3415ZM36.8094 32.9494H63.5237V25.8415V17.5997V2.25H36.8094V17.5997V25.8415V32.9494ZM64.5237 32.9494H89.9783V26.3415H64.5237V32.9494ZM64.5237 25.3415H89.9783V18.0997H64.5237V25.3415ZM90.9783 18.0997V25.8415V33.4494V41.6912V49.299V56.9069V64.5147V98.25H98.1666V18.0997H90.9783ZM89.9783 98.25V65.0147H14.1341V74.4854C14.7024 74.9138 15.1981 75.4044 15.6267 75.9262C16.8576 77.425 17.5406 79.1858 17.8262 80.4984H60.2445H60.7445V80.9984V89.2402V89.7402H60.2445H17.9133V98.25H89.9783ZM16.9133 98.25V89.7402H13.6341C12.9236 89.7402 11.8694 89.5298 10.9787 88.8843C10.0626 88.2205 9.35488 87.1195 9.35488 85.4363C9.35488 83.7581 10.0566 82.57 10.9392 81.7824C11.807 81.0079 12.8427 80.6242 13.5514 80.5053L13.5925 80.4984H13.6341H16.8C16.5172 79.3408 15.9035 77.8388 14.8539 76.5608C13.6295 75.0701 11.8211 73.8906 9.225 73.8906C6.65068 73.8906 4.95589 75.1539 3.85908 76.7629C2.75438 78.3834 2.26974 80.343 2.16656 81.6518V98.25H16.9133ZM13.1341 73.8424V64.5147V64.0147V56.9069V49.299V41.6912V33.4494V25.8415V18.0997H5.94578V73.6122C6.87195 73.1607 7.95845 72.8906 9.225 72.8906C10.7546 72.8906 12.0495 73.256 13.1341 73.8424ZM14.1341 64.0147V57.4069H48.9069V56.4069H14.1341V49.799H89.9783V56.4069H58.3549C58.0788 56.4069 57.8549 56.6307 57.8549 56.9069C57.8549 57.183 58.0788 57.4069 58.3549 57.4069H89.9783V64.0147H14.1341ZM89.9783 48.799V42.1912H14.1341V48.799H89.9783ZM14.1341 41.1912H89.9783V33.9494H64.0237H36.3094H14.1341V41.1912ZM43.9978 9.49183H44.4978H52.6861C53.3127 9.49183 54.2221 9.71407 54.9825 10.3753C55.7607 11.052 56.3354 12.1474 56.3354 13.7958C56.3354 15.4106 55.8879 16.4933 55.2586 17.1774C54.636 17.8543 53.8711 18.0997 53.3159 18.0997H44.9978V25.8415H43.9978V17.5997V9.99183V9.49183ZM44.9978 17.0997H53.3159C53.6006 17.0997 54.0955 16.9647 54.5226 16.5004C54.9431 16.0433 55.3354 15.2241 55.3354 13.7958C55.3354 12.401 54.8604 11.5944 54.3263 11.1299C53.7745 10.65 53.1092 10.4918 52.6861 10.4918H44.9978V17.0997ZM13.6775 81.4984C13.1257 81.5989 12.2953 81.9124 11.605 82.5285C10.9129 83.1462 10.3549 84.0714 10.3549 85.4363C10.3549 86.7963 10.9068 87.5973 11.5655 88.0746C12.2495 88.5703 13.0849 88.7402 13.6341 88.7402H17.4133H59.7445V81.4984H17.4133H13.6775Z" fill="#1C1B20"/>
</svg>
