<svg width="101" height="100" viewBox="0 0 101 100" fill="none" xmlns="http://www.w3.org/2000/svg">
<g clip-path="url(#clip0_719_837)">
<path fill-rule="evenodd" clip-rule="evenodd" d="M21.8331 21.875C21.8331 20.3925 22.282 18.1576 23.6139 16.3078C24.9274 14.4834 27.1211 13 30.7081 13C34.2952 13 36.4888 14.4834 37.8024 16.3078C39.1343 18.1576 39.5831 20.3925 39.5831 21.875V27.625H21.8331V21.875ZM40.5831 21.875V27.625H52.0831V21.875C52.0831 20.2325 52.5718 17.7799 54.0524 15.7235C55.5513 13.6416 58.0452 12 61.9581 12C65.8711 12 68.3649 13.6416 69.8639 15.7235C71.3445 17.7799 71.8331 20.2325 71.8331 21.875V27.625H108.833V28.625H71.8331V42.1875V61.9826C74.6605 61.8473 76.3724 60.9766 78.1918 60.0512L78.3484 59.9717C80.427 58.9156 82.6581 57.8341 86.6787 57.8341C90.5365 57.8341 92.9375 58.8148 95.3727 59.8095C95.4909 59.8578 95.6091 59.9061 95.7276 59.9543C98.26 60.9849 100.948 62.0008 105.581 62.0008C107.907 62.0008 109.531 61.7445 110.779 61.3707C112.024 60.9977 112.918 60.5014 113.794 59.9864C113.874 59.9394 113.954 59.8921 114.035 59.8447L114.037 59.8432L114.037 59.8432C114.834 59.3724 115.657 58.8857 116.712 58.5136C117.882 58.101 119.318 57.8341 121.333 57.8341C121.609 57.8341 121.833 58.058 121.833 58.3341C121.833 58.6102 121.609 58.8341 121.333 58.8341C119.411 58.8341 118.09 59.088 117.045 59.4567C116.086 59.7947 115.344 60.2332 114.54 60.7076L114.54 60.7076C114.461 60.7542 114.382 60.8012 114.301 60.8485C113.405 61.3751 112.429 61.9205 111.065 62.3287C109.705 62.7362 107.981 63.0008 105.581 63.0008C100.763 63.0008 97.9377 61.9333 95.3507 60.8806L95.0086 60.741C92.5844 59.7512 90.3381 58.8341 86.6787 58.8341C82.8883 58.8341 80.8234 59.8359 78.8013 60.8632L78.6345 60.948C76.6293 61.9681 74.5994 63.0008 71.0568 63.0008C67.4331 63.0008 64.8142 61.922 62.3662 60.8773L62.1735 60.7951C59.7961 59.7795 57.5826 58.8341 54.6539 58.8341C51.7331 58.8341 49.708 59.7744 47.5258 60.7877L47.3462 60.871C45.0877 61.9186 42.6614 63.0008 39.032 63.0008C35.4402 63.0008 33.4037 61.9396 31.4158 60.9036L31.3337 60.8609C29.3578 59.8315 27.3977 58.8341 23.8162 58.8341C20.2906 58.8341 18.5213 59.7995 16.6635 60.8133L16.5845 60.8564C14.6425 61.9157 12.5954 63.0008 8.5694 63.0008C6.5692 63.0008 5.09943 62.7336 3.87115 62.3241C2.76377 61.9549 1.86404 61.4725 0.985924 61.0018L0.985535 61.0015C0.896339 60.9537 0.807365 60.906 0.718414 60.8586C-0.250198 60.3419 -1.23759 59.8415 -2.5521 59.4659C-3.86691 59.0902 -5.52832 58.8341 -7.83354 58.8341C-8.10968 58.8341 -8.33354 58.6102 -8.33354 58.3341C-8.33354 58.058 -8.10968 57.8341 -7.83354 57.8341C-5.45221 57.8341 -3.69634 58.0989 -2.27733 58.5044C-0.858009 58.91 0.204964 59.4513 1.18908 59.9763C1.27768 60.0235 1.36546 60.0706 1.45268 60.1173C2.33807 60.5916 3.16492 61.0345 4.18745 61.3754C5.30246 61.7471 6.66414 62.0008 8.5694 62.0008C12.3543 62.0008 14.2282 61.0025 16.1056 59.9785L16.1796 59.9381C18.0881 58.8968 20.0357 57.8341 23.8162 57.8341C27.6396 57.8341 29.7725 58.92 31.7957 59.974L31.8693 60.0123C33.8271 61.0325 35.6854 62.0008 39.032 62.0008C39.2191 62.0008 39.4027 61.9977 39.5831 61.9918V42.1875V28.625H21.3331H-3.66688V27.625H20.8331V21.875C20.8331 20.2325 21.3218 17.7799 22.8024 15.7235C24.3013 13.6416 26.7952 12 30.7081 12C34.6211 12 37.1149 13.6416 38.6139 15.7235C40.0945 17.7799 40.5831 20.2325 40.5831 21.875ZM40.5831 61.9276V42.6875H70.8331V61.9993C67.5424 61.9565 65.1389 60.9733 62.7587 59.9576L62.5229 59.8568C60.17 58.8512 57.7901 57.8341 54.6539 57.8341C51.5097 57.8341 49.3094 58.8563 47.1403 59.8641L46.9254 59.9639C45.0504 60.8336 43.156 61.6791 40.5831 61.9276ZM40.5831 41.6875V28.625H52.5831H70.8331V41.6875H40.5831ZM70.8331 21.875V27.625H53.0831V21.875C53.0831 20.3925 53.532 18.1576 54.8639 16.3078C56.1774 14.4834 58.3711 13 61.9581 13C65.5452 13 67.7388 14.4834 69.0524 16.3078C70.3843 18.1576 70.8331 20.3925 70.8331 21.875ZM-7.83354 70.3341C-8.10968 70.3341 -8.33354 70.558 -8.33354 70.8341C-8.33354 71.1102 -8.10968 71.3341 -7.83354 71.3341C-5.52832 71.3341 -3.86691 71.5902 -2.5521 71.9659C-1.23759 72.3415 -0.250198 72.8419 0.718414 73.3586L0.890442 73.4506L0.985924 73.5018C1.86404 73.9725 2.76377 74.4549 3.87115 74.8241C5.09943 75.2336 6.5692 75.5008 8.5694 75.5008C12.5954 75.5008 14.6425 74.4157 16.5845 73.3564L16.6635 73.3133C18.5213 72.2995 20.2906 71.3341 23.8162 71.3341C27.3977 71.3341 29.3578 72.3315 31.3337 73.3609L31.4158 73.4036C33.4037 74.4396 35.4402 75.5008 39.032 75.5008C42.6614 75.5008 45.0877 74.4187 47.3462 73.371L47.5258 73.2877C49.708 72.2744 51.7331 71.3341 54.6539 71.3341C57.5826 71.3341 59.7961 72.2795 62.1735 73.2951L62.3662 73.3773C64.8142 74.422 67.4331 75.5008 71.0568 75.5008C74.5994 75.5008 76.6293 74.4681 78.6345 73.448L78.8013 73.3632C80.8234 72.3359 82.8883 71.3341 86.6787 71.3341C90.3381 71.3341 92.5844 72.2512 95.0086 73.241L95.3507 73.3806C97.9377 74.4333 100.763 75.5008 105.581 75.5008C107.981 75.5008 109.705 75.2362 111.065 74.8287C112.429 74.4205 113.405 73.8751 114.301 73.3485C114.382 73.3012 114.461 73.2542 114.54 73.2076L114.54 73.2076C115.344 72.7332 116.086 72.2947 117.045 71.9567C118.09 71.588 119.411 71.3341 121.333 71.3341C121.609 71.3341 121.833 71.1102 121.833 70.8341C121.833 70.558 121.609 70.3341 121.333 70.3341C119.318 70.3341 117.882 70.601 116.712 71.0136C115.657 71.3857 114.834 71.8724 114.037 72.3432L114.037 72.3432L114.035 72.3447L114.029 72.3478C113.951 72.3942 113.873 72.4404 113.794 72.4864C112.918 73.0014 112.024 73.4977 110.779 73.8707C109.531 74.2445 107.907 74.5008 105.581 74.5008C100.948 74.5008 98.26 73.4849 95.7276 72.4543C95.6111 72.4069 95.4949 72.3594 95.3787 72.312L95.3727 72.3095C92.9375 71.3148 90.5365 70.3341 86.6787 70.3341C82.6581 70.3341 80.427 71.4156 78.3484 72.4717L78.1918 72.5512C76.2117 73.5584 74.3589 74.5008 71.0568 74.5008C67.6507 74.5008 65.1925 73.4962 62.7587 72.4576L62.5229 72.3568C60.17 71.3512 57.7901 70.3341 54.6539 70.3341C51.5097 70.3341 49.3094 71.3563 47.1403 72.3641L46.9254 72.4639C44.6927 73.4995 42.4325 74.5008 39.032 74.5008C35.6854 74.5008 33.8271 73.5325 31.8693 72.5123L31.7957 72.474C29.7725 71.42 27.6396 70.3341 23.8162 70.3341C20.0357 70.3341 18.0881 71.3968 16.1796 72.4381L16.1056 72.4785C14.2282 73.5025 12.3543 74.5008 8.5694 74.5008C6.66414 74.5008 5.30246 74.2471 4.18745 73.8754C3.16492 73.5345 2.33807 73.0916 1.45268 72.6173L1.44913 72.6154L1.32806 72.5505C1.28194 72.5259 1.23562 72.5011 1.18908 72.4763C0.204964 71.9513 -0.858009 71.41 -2.27733 71.0044C-3.69634 70.5989 -5.45221 70.3341 -7.83354 70.3341ZM-8.33354 83.3341C-8.33354 83.0579 -8.10968 82.8341 -7.83354 82.8341C-5.45221 82.8341 -3.69634 83.0989 -2.27733 83.5044C-0.858009 83.91 0.204964 84.4513 1.18908 84.9763C1.27768 85.0235 1.36546 85.0706 1.45268 85.1173C2.33807 85.5916 3.16492 86.0345 4.18745 86.3754C5.30246 86.7471 6.66414 87.0008 8.5694 87.0008C12.3543 87.0008 14.2282 86.0025 16.1056 84.9785L16.1796 84.9381C18.0881 83.8968 20.0357 82.8341 23.8162 82.8341C27.6396 82.8341 29.7725 83.92 31.7957 84.974L31.8693 85.0123C33.8271 86.0324 35.6854 87.0008 39.032 87.0008C42.4325 87.0008 44.6927 85.9995 46.9254 84.9638L47.1403 84.8641C49.3094 83.8563 51.5097 82.8341 54.6539 82.8341C57.7901 82.8341 60.17 83.8512 62.5229 84.8568L62.7587 84.9576C65.1925 85.9962 67.6507 87.0008 71.0568 87.0008C74.3589 87.0008 76.2117 86.0584 78.1918 85.0512L78.3484 84.9717C80.427 83.9156 82.6581 82.8341 86.6787 82.8341C90.5365 82.8341 92.9375 83.8148 95.3727 84.8095L95.386 84.8149L95.7276 84.9543C98.26 85.9849 100.948 87.0008 105.581 87.0008C107.907 87.0008 109.531 86.7445 110.779 86.3707C112.024 85.9977 112.918 85.5014 113.794 84.9864C113.875 84.9389 113.956 84.8911 114.037 84.8432C114.834 84.3724 115.657 83.8857 116.712 83.5136C117.882 83.101 119.318 82.8341 121.333 82.8341C121.609 82.8341 121.833 83.0579 121.833 83.3341C121.833 83.6102 121.609 83.8341 121.333 83.8341C119.411 83.8341 118.09 84.088 117.045 84.4567C116.086 84.7947 115.344 85.2332 114.54 85.7075L114.54 85.7076L114.434 85.77L114.301 85.8485C113.405 86.3751 112.429 86.9205 111.065 87.3287C109.705 87.7362 107.981 88.0008 105.581 88.0008C100.763 88.0008 97.9377 86.9333 95.3507 85.8805L95.0086 85.741C92.5844 84.7512 90.3381 83.8341 86.6787 83.8341C82.8883 83.8341 80.8234 84.8359 78.8013 85.8632L78.6345 85.948C76.6293 86.9681 74.5994 88.0008 71.0568 88.0008C67.4331 88.0008 64.8142 86.922 62.3662 85.8773L62.1735 85.795C59.7961 84.7795 57.5826 83.8341 54.6539 83.8341C51.7331 83.8341 49.708 84.7744 47.5258 85.7877L47.3462 85.871C45.0877 86.9186 42.6614 88.0008 39.032 88.0008C35.4402 88.0008 33.4037 86.9396 31.4158 85.9036L31.3337 85.8609C29.3578 84.8315 27.3977 83.8341 23.8162 83.8341C20.2906 83.8341 18.5213 84.7995 16.6635 85.8133L16.5845 85.8564C14.6425 86.9157 12.5954 88.0008 8.5694 88.0008C6.5692 88.0008 5.09943 87.7336 3.87115 87.3241C2.76377 86.9548 1.86404 86.4725 0.985924 86.0018C0.896599 85.9539 0.807495 85.9061 0.718414 85.8586C-0.250198 85.3419 -1.23759 84.8415 -2.5521 84.4659C-3.86691 84.0902 -5.52832 83.8341 -7.83354 83.8341C-8.10968 83.8341 -8.33354 83.6102 -8.33354 83.3341Z" fill="#1C1B20"/>
</g>
<defs>
<clipPath id="clip0_719_837">
<rect width="100" height="100" fill="white" transform="translate(0.5)"/>
</clipPath>
</defs>
</svg>
