<svg width="101" height="100" viewBox="0 0 101 100" fill="none" xmlns="http://www.w3.org/2000/svg">
<path d="M20.8115 19.6008L26.4717 36.181M20.8115 19.6008C23.9191 17.8322 26.0278 18.3849 29.0244 19.0481M20.8115 19.6008C19.0357 20.7062 17.8149 21.5904 17.038 23.5801M26.4717 36.181H17.7039M26.4717 36.181H51.9984M15.9281 4.34701C27.4706 -0.295451 37.5703 8.10518 40.2339 13.7425C37.7922 13.853 32.5759 12.9687 29.0244 19.0481M15.9281 4.34701C1.61105 10.0948 4.49666 25.3486 5.60652 27.3382C9.60199 21.8115 15.3732 23.0274 17.038 23.5801M15.9281 4.34701C14.1524 5.15095 13.8194 19.3797 17.038 23.5801M15.9281 4.34701C18.9511 3.13115 26.5827 9.21056 29.0244 19.0481M12.9315 25.2381L19.2577 30.4332M19.2577 30.4332L17.7039 36.181M19.2577 30.4332H44.6733L51.9984 36.181M17.7039 36.181H4.49666V42.592H7.49327M51.9984 36.181H97.6133V42.592H95.0607M61.0992 27.3382C56.3268 27.3382 55.9938 30.4332 55.9938 31.8702C55.9938 32.6111 55.9938 41.5952 55.9938 50.6611M55.9938 64.3674C55.9938 62.806 55.9938 61.0026 55.9938 59.0617M84.2951 27.3382C79.5227 27.3382 79.1898 30.4332 79.1898 31.8702C79.1898 32.6111 79.1898 41.5952 79.1898 50.6611M79.1898 64.3674C79.1898 62.806 79.1898 61.0026 79.1898 59.0617M55.9938 50.6611H79.1898M55.9938 50.6611C55.9938 51.5842 55.9938 52.5082 55.9938 53.4244M79.1898 50.6611C79.1898 53.5402 79.1898 56.4275 79.1898 59.0617M79.1898 50.6611C86.4704 50.6611 92.804 55.8193 95.0607 58.3985M79.1898 59.0617H55.9938M55.9938 59.0617C55.9938 57.2721 55.9938 55.3657 55.9938 53.4244M95.0607 42.592V58.3985M95.0607 42.592H7.49327M95.0607 58.3985C98.1682 62.0461 99.5001 66.0254 99.5001 71.6627M55.9938 53.4244C37.1263 54.6403 38.5691 50.1084 24.252 50.1084C16.8865 50.1084 11.2916 52.8458 7.49327 56.9076M1.50006 72.4364C1.50006 77.3207 4.47849 81.2161 8.49213 84.0215M1.50006 72.4364C1.50006 79.9958 2.73374 87.3796 8.49213 92.0764M1.50006 72.4364C1.50006 66.89 3.50773 61.1697 7.49327 56.9076M24.252 89.2377C21.7467 89.2377 18.6151 88.6669 15.4842 87.558M24.252 89.2377V96.9986M24.252 89.2377C26.8264 89.2377 29.2327 88.914 31.6881 88.4724M99.5001 71.6627C99.5001 75.2532 96.6635 81.624 90.7322 85.7767M99.5001 71.6627C99.5001 81.7583 97.3087 90.1625 90.7322 94.2687M8.49213 84.0215V92.0764M8.49213 84.0215C10.6274 85.5139 13.0556 86.6979 15.4842 87.558M8.49213 92.0764C10.3276 93.5735 12.6228 94.7977 15.4842 95.6674M15.4842 87.558V95.6674M15.4842 95.6674C15.9846 95.8195 16.5024 95.9608 17.038 96.0908C19.8304 96.7685 22.1564 97.0213 24.252 96.9986M24.252 96.9986C26.944 96.9694 29.256 96.4855 31.6881 95.8636M31.6881 88.4724V95.8636M31.6881 88.4724C34.2201 88.017 36.8043 87.4362 39.679 86.9554M31.6881 95.8636C34.0776 95.2526 36.5831 94.5084 39.679 93.9312M39.679 86.9554V93.9312M39.679 86.9554C42.2408 86.527 45.0332 86.1781 48.2249 86.0683M39.679 93.9312C42.0935 93.481 44.8671 93.1325 48.2249 93.0281M48.2249 86.0683C48.9089 86.0447 49.6112 86.0322 50.3336 86.0322C52.8822 86.0322 54.9005 86.2154 56.6597 86.5009M48.2249 86.0683V93.0281M48.2249 93.0281C48.9033 93.007 49.6056 92.9958 50.3336 92.9958C52.8245 92.9958 54.8949 93.0782 56.6597 93.2192M56.6597 86.5009V93.2192M56.6597 86.5009C59.8584 87.0201 62.2007 87.8774 65.3166 88.5867M56.6597 93.2192C60.6798 93.5405 63.1136 94.1661 65.3166 94.816M65.3166 88.5867V94.816M65.3166 88.5867C67.606 89.1078 70.3131 89.549 74.0844 89.7174M65.3166 94.816C67.8546 95.5648 70.0864 96.3458 74.0844 96.7307M74.0844 89.7174C75.1427 89.7646 76.2848 89.7903 77.525 89.7903C79.3015 89.7903 80.9658 89.6147 82.5193 89.2958M74.0844 89.7174V96.7307M74.0844 96.7307C75.6821 96.8845 77.5617 96.9751 79.8557 96.9751C80.7831 96.9751 81.6705 96.9344 82.5193 96.8547M82.5193 89.2958V96.8547M82.5193 89.2958C85.7227 88.6381 88.4555 87.3708 90.7322 85.7767M82.5193 96.8547C85.8093 96.5456 88.5191 95.6505 90.7322 94.2687M90.7322 85.7767V94.2687M7.49327 42.592V56.9076" stroke="#1C1B20"/>
<circle cx="18.6294" cy="63.2496" r="3.7574" stroke="#1C1B20"/>
<circle cx="41.6158" cy="61.7018" r="3.09433" stroke="#1C1B20"/>
<circle cx="24.2654" cy="77.0633" r="2.54177" stroke="#1C1B20"/>
<circle cx="75.5431" cy="78.8308" r="2.54177" stroke="#1C1B20"/>
</svg>
