<svg width="101" height="100" viewBox="0 0 101 100" fill="none" xmlns="http://www.w3.org/2000/svg">
<path fill-rule="evenodd" clip-rule="evenodd" d="M30.0001 15H29.5001V15.5V19.5V31H21.0001C17.9625 31 15.5001 33.4624 15.5001 36.5V46.8991L4.72273 54.084L4.44107 54.2718L4.51081 54.603L6.08976 62.103L8.38514 73.0061C8.2505 73.0021 8.11325 73 7.97328 73C5.57184 73 4.0538 73.6035 2.75113 74.3514C2.51165 74.4889 2.42898 74.7945 2.56647 75.034C2.70396 75.2735 3.00956 75.3562 3.24904 75.2187C4.42719 74.5422 5.77526 74 7.97328 74C10.8707 74 12.4526 74.9402 14.0719 75.927L14.1436 75.9707C15.774 76.9646 17.4724 78 20.4601 78C23.4778 78 25.4952 76.9454 27.3489 75.9395L27.4874 75.8643C29.2852 74.8879 30.9201 74 33.2801 74C35.649 74 37.4395 74.8946 39.3988 75.8734L39.5469 75.9474C41.5551 76.9499 43.7299 78 46.7411 78C49.6878 78 51.3809 76.9924 53.0253 76.0136L53.1661 75.9298C54.8216 74.9459 56.4904 74 59.5611 74C62.5238 74 64.3204 74.857 66.302 75.8022C66.7838 76.032 67.2764 76.267 67.7994 76.4962C68.0523 76.607 68.3472 76.4918 68.458 76.2389C68.5689 75.9859 68.4537 75.6911 68.2008 75.5802C67.7214 75.3702 67.256 75.1475 66.7898 74.9245L66.7897 74.9244C64.9036 74.0219 63.005 73.1134 60.1142 73.0098L60.6426 70.5H63.5001C67.0899 70.5 70.0001 67.5899 70.0001 64V39.75C70.0001 36.7124 72.4625 34.25 75.5001 34.25H76.0001V37V37.5H76.5001H80.0001V45.5V61V76.5V84.5V85H80.5001H98.5001H99.0001V84.5V76.5V61V45.5V37V30.5V30H98.5001H76.5001H76.0001V30.5V33.25H75.5001C71.9102 33.25 69.0001 36.1601 69.0001 39.75V64C69.0001 67.0376 66.5377 69.5 63.5001 69.5H60.8532L62.4104 62.103L63.9894 54.603L64.0591 54.2718L63.7774 54.084L53.1515 47H53.5001V36.5C53.5001 33.4624 51.0377 31 48.0001 31H39.5001V19.5V15.5V15H39.0001H30.0001ZM59.0929 73.0071L61.3593 62.2417L34.2501 45.5868L7.14087 62.2417L9.42258 73.0798C11.7292 73.3445 13.2008 74.2251 14.5923 75.073L14.6477 75.1068C16.2559 76.0871 17.7537 77 20.4601 77C23.2113 77 25.0399 76.0546 26.872 75.0605L27.0553 74.9609C28.8301 73.9962 30.6627 73 33.2801 73C35.8885 73 37.8675 73.9896 39.7921 74.952L39.9935 75.0526C41.9916 76.0501 43.9832 77 46.7411 77C49.4114 77 50.9047 76.1116 52.5313 75.1439L52.6552 75.0702C54.2834 74.1026 56.0448 73.1005 59.0929 73.0071ZM38.5001 31V20H30.5001V31H38.5001ZM38.5001 19H30.5001V16H38.5001V19ZM21.0001 32C18.5148 32 16.5001 34.0147 16.5001 36.5V46.2324L33.9727 34.584L34.2501 34.3991L34.5274 34.584L52.5001 46.5657V36.5C52.5001 34.0147 50.4854 32 48.0001 32H21.0001ZM61.5781 61.2024L34.5118 44.574L34.2501 44.4132L33.9884 44.574L6.92208 61.2024L5.5591 54.7283L34.2501 35.6009L62.9411 54.7282L61.5781 61.2024ZM81.0001 37.5V45H98.0001V37.5H81.0001ZM98.0001 31H77.0001V33.75V36.5H80.5001H98.0001V31ZM98.0001 46H81.0001V60.5H98.0001V46ZM98.0001 61.5H81.0001V76H98.0001V61.5ZM98.0001 77H81.0001V84H98.0001V77ZM7.97328 78C5.77526 78 4.42719 78.5422 3.24904 79.2187C3.00956 79.3562 2.70396 79.2735 2.56647 79.034C2.42898 78.7945 2.51165 78.4889 2.75113 78.3514C4.0538 77.6035 5.57184 77 7.97328 77C11.1527 77 12.9296 78.0598 14.5923 79.073L14.6477 79.1068C16.2559 80.0871 17.7537 81 20.4601 81C23.2113 81 25.0399 80.0546 26.872 79.0605L27.0553 78.9609C28.8301 77.9962 30.6627 77 33.2801 77C35.8885 77 37.8675 77.9896 39.7921 78.952L39.9935 79.0527C41.9916 80.0501 43.9832 81 46.7411 81C49.4114 81 50.9047 80.1116 52.5313 79.1439L52.6552 79.0702C54.365 78.0541 56.2217 77 59.5611 77C62.7679 77 64.7858 77.9656 66.7897 78.9244L66.7898 78.9245L66.79 78.9245C67.2561 79.1476 67.7214 79.3702 68.2008 79.5802C68.4537 79.6911 68.5689 79.9859 68.458 80.2389C68.3472 80.4918 68.0523 80.607 67.7994 80.4962C67.2767 80.2671 66.7842 80.0322 66.3027 79.8025L66.3022 79.8023L66.302 79.8022C64.3204 78.857 62.5238 78 59.5611 78C56.4904 78 54.8216 78.9459 53.1661 79.9298L53.0253 80.0136C51.3809 80.9924 49.6878 82 46.7411 82C43.7299 82 41.5551 80.9499 39.5469 79.9473L39.3988 79.8734C37.4395 78.8946 35.649 78 33.2801 78C30.9201 78 29.2852 78.8879 27.4874 79.8643L27.3489 79.9395C25.4952 80.9454 23.4778 82 20.4601 82C17.4724 82 15.774 80.9646 14.1436 79.9707L14.0719 79.927C12.4526 78.9402 10.8707 78 7.97328 78ZM3.24904 83.2187C4.42719 82.5422 5.77526 82 7.97328 82C10.8707 82 12.4526 82.9402 14.0719 83.927L14.1436 83.9707C15.774 84.9646 17.4724 86 20.4601 86C23.4778 86 25.4952 84.9454 27.3489 83.9395L27.4874 83.8643C29.2852 82.8879 30.9201 82 33.2801 82C35.649 82 37.4395 82.8946 39.3988 83.8734L39.5469 83.9473C41.5551 84.9499 43.7299 86 46.7411 86C49.6878 86 51.3809 84.9924 53.0253 84.0136L53.1661 83.9298C54.8216 82.9459 56.4904 82 59.5611 82C62.5238 82 64.3204 82.857 66.302 83.8022L66.3022 83.8023C66.7839 84.032 67.2765 84.267 67.7994 84.4962C68.0523 84.607 68.3472 84.4918 68.458 84.2389C68.5689 83.9859 68.4537 83.6911 68.2008 83.5802C67.7214 83.3702 67.256 83.1475 66.7898 82.9245L66.7897 82.9244C64.7858 81.9656 62.7679 81 59.5611 81C56.2217 81 54.365 82.0541 52.6552 83.0702L52.5313 83.1439C50.9047 84.1116 49.4114 85 46.7411 85C43.9832 85 41.9916 84.0501 39.9935 83.0527L39.7921 82.952C37.8675 81.9896 35.8885 81 33.2801 81C30.6627 81 28.8301 81.9962 27.0553 82.9609L26.872 83.0605C25.0399 84.0546 23.2113 85 20.4601 85C17.7537 85 16.2559 84.0871 14.6477 83.1068L14.5923 83.073C12.9296 82.0598 11.1527 81 7.97328 81C5.57184 81 4.0538 81.6035 2.75113 82.3514C2.51165 82.4889 2.42898 82.7945 2.56647 83.034C2.70396 83.2735 3.00956 83.3562 3.24904 83.2187Z" fill="#1C1B20"/>
</svg>
