<svg xmlns="http://www.w3.org/2000/svg" width="25" height="25" viewBox="0 0 25 25" fill="none">
  <path fill-rule="evenodd" clip-rule="evenodd" d="M8.1357 1.56225C9.27081 1.5124 9.63705 1.5 12.5041 1.5C15.3704 1.5 15.7379 1.51239 16.8775 1.56647C18.0417 1.61786 18.8567 1.80759 19.5776 2.08604C20.338 2.3725 21.0306 2.82374 21.6028 3.40386L21.5996 3.40079L21.2837 3.72414L21.6058 3.40696L21.6028 3.40386C22.1887 3.97714 22.6357 4.66602 22.926 5.43324C23.205 6.15118 23.3946 6.97058 23.4459 8.13441C23.4959 9.27066 23.5 9.63842 23.5 12.5021C23.5 15.3686 23.4876 15.7348 23.4377 16.8697C23.3863 18.0352 23.1961 18.8506 22.9174 19.572C22.3232 21.1083 21.1083 22.3231 19.5717 22.9173C18.8534 23.1966 18.0335 23.3864 16.8686 23.4377C15.7334 23.4878 15.3671 23.5 12.5001 23.5C9.63308 23.5 9.26663 23.4878 8.13161 23.4377C6.96682 23.3864 6.15185 23.1967 5.43066 22.9182C4.66998 22.6316 3.97717 22.1801 3.40482 21.5997L3.40731 21.6022L3.72454 21.2801L3.40237 21.5972L3.40482 21.5997C2.82466 21.0279 2.37328 20.3396 2.08239 19.571C1.80341 18.8531 1.61359 18.0337 1.56227 16.8698C1.51241 15.7349 1.5 15.3686 1.5 12.5021C1.5 9.63632 1.51239 9.26892 1.56649 8.12947C1.61789 6.96542 1.80766 6.15078 2.08616 5.42986C2.3728 4.66971 2.82392 3.97725 3.4042 3.40509L3.40114 3.40821L3.72454 3.72414L3.40731 3.40202L3.4042 3.40509C3.97758 2.81925 4.6666 2.37238 5.43414 2.0821C6.15199 1.80335 6.97158 1.61357 8.1357 1.56225ZM12.4996 7.28906C9.623 7.28906 7.28906 9.62284 7.28906 12.4996C7.28906 15.3763 9.623 17.7101 12.4996 17.7101C15.3763 17.7101 17.7101 15.3763 17.7101 12.4996C17.7101 9.62284 15.3763 7.28906 12.4996 7.28906ZM18.8683 3.81543C17.5895 3.81543 16.5526 4.85206 16.5526 6.13122C16.5526 7.41011 17.5895 8.44701 18.8683 8.44701C20.1473 8.44701 21.1842 7.41016 21.1842 6.13122C21.1842 4.85201 20.1472 3.81543 18.8683 3.81543Z" fill="white"/>
</svg>