<svg xmlns="http://www.w3.org/2000/svg" width="25" height="25" viewBox="0 0 25 25" fill="none">
  <path d="M1.83871 8.78193H6.14516V23.5H1.83871V8.78193ZM4 1.5C4.49445 1.5 4.9778 1.65576 5.38892 1.94758C5.80005 2.2394 6.12047 2.65417 6.30969 3.13945C6.49891 3.62472 6.54843 4.15871 6.45196 4.67388C6.3555 5.18904 6.1174 5.66226 5.76777 6.03367C5.41814 6.40509 4.97267 6.65802 4.48772 6.7605C4.00277 6.86297 3.50011 6.81038 3.04329 6.60937C2.58648 6.40836 2.19602 6.06796 1.92132 5.63123C1.64662 5.19449 1.5 4.68102 1.5 4.15576C1.5 3.45141 1.76339 2.77591 2.23223 2.27786C2.70107 1.7798 3.33696 1.5 4 1.5Z" fill="white"/>
  <path d="M9.5 8.86122H13.8077V10.8636H13.8666C14.298 10.118 14.9209 9.5047 15.6691 9.08909C16.4172 8.67347 17.2626 8.47104 18.1154 8.50334C22.6671 8.50334 23.5 11.5368 23.5 15.4734V23.5H19.0072V16.3766C19.0072 14.6724 19.0072 12.4911 16.6683 12.4911C14.3293 12.4911 13.976 14.3401 13.976 16.2488V23.4915H9.5V8.86122Z" fill="white"/>
</svg>