<svg xmlns="http://www.w3.org/2000/svg" width="25" height="31" viewBox="0 0 25 31" fill="none">
  <path fill-rule="evenodd" clip-rule="evenodd" d="M10.5219 21.1361C11.4945 21.1675 12.3731 22.4539 14.9459 22.4539C19.7777 22.4852 23.1036 18.7829 24.139 13.9197C27.7472 -2.92914 3.17996 -4.2783 0.6699 9.5898C0.0737602 12.8529 1.04641 16.618 3.58785 17.8416C5.53314 18.7829 5.65865 16.0846 5.06251 14.9237C2.42694 9.77805 5.5959 5.13444 9.7375 3.81665C13.6281 2.56162 16.3892 3.59702 18.4913 5.76195C21.1897 8.55439 19.966 16.1473 16.7657 18.5633C15.6361 19.4104 13.5653 19.5987 12.4986 18.5946C10.3023 16.5552 13.6908 12.2254 13.1888 9.05641C12.6868 5.91883 7.72945 6.38947 7.47844 11.0017C7.35294 13.3549 8.04321 14.0452 7.50982 16.3983C6.66267 20.1634 4.08986 27.8505 5.90965 30.8626C8.57659 29.6075 9.89438 22.0774 10.5219 21.1361Z" fill="white"/>
</svg>