<svg xmlns="http://www.w3.org/2000/svg" width="25" height="21" viewBox="0 0 25 21" fill="none">
  <path d="M8.04779 20.2527C17.1048 20.2527 22.0578 12.7491 22.0578 6.24268C22.0578 6.0295 22.0534 5.8174 22.0436 5.60613C23.005 4.91115 23.8408 4.04367 24.5 3.05662C23.6178 3.4486 22.6684 3.71256 21.6723 3.83157C22.6889 3.22204 23.4696 2.25738 23.8378 1.10765C22.8862 1.67187 21.8326 2.08186 20.7112 2.30296C19.8124 1.34594 18.5327 0.74733 17.1168 0.74733C14.3973 0.74733 12.192 2.95262 12.192 5.67082C12.192 6.05734 12.2354 6.43294 12.3194 6.79353C8.2274 6.58799 4.59859 4.62836 2.17028 1.64921C1.74691 2.37666 1.50315 3.22231 1.50315 4.12392C1.50315 5.83214 2.37255 7.34028 3.69452 8.22278C2.88682 8.19794 2.12797 7.97575 1.46439 7.6067C1.4633 7.62717 1.4633 7.64791 1.4633 7.66948C1.4633 10.0544 3.16087 12.0454 5.41366 12.4966C5.00012 12.6093 4.56501 12.6699 4.11571 12.6699C3.79852 12.6699 3.49007 12.6383 3.19008 12.5812C3.81681 14.5373 5.63477 15.9611 7.79011 16.0012C6.10454 17.3221 3.98141 18.1091 1.67457 18.1091C1.27741 18.1091 0.885428 18.0864 0.5 18.0408C2.67909 19.4373 5.26653 20.2527 8.04779 20.2527Z" fill="white"/>
</svg>