<svg xmlns="http://www.w3.org/2000/svg" width="25" height="25" viewBox="0 0 25 25" fill="none">
  <path fill-rule="evenodd" clip-rule="evenodd" d="M24.3222 7.73746L24.3233 7.74834C24.3304 7.82811 24.4998 9.72283 24.5 11.6252V13.4035C24.5 15.3058 24.3304 17.2005 24.3233 17.2803L24.3206 17.3046C24.2971 17.4915 24.067 19.1565 23.2714 20.0129C22.3167 21.053 21.2401 21.1661 20.7224 21.2206L20.722 21.2206C20.6726 21.2257 20.6275 21.2304 20.5874 21.2356L20.5455 21.24C17.3727 21.4685 12.5812 21.4996 12.5332 21.4998L12.5259 21.5L12.5186 21.4998C12.2751 21.4964 6.53127 21.4113 4.69931 21.2387L4.64383 21.2311C4.58804 21.2214 4.50692 21.2122 4.41262 21.2015L4.40488 21.2007C3.78745 21.1307 2.63957 21.0005 1.73174 20.0167C0.900265 19.1509 0.698119 17.4807 0.677794 17.2925L0.676512 17.2805C0.669371 17.2007 0.5 15.3058 0.5 13.4035V11.6252C0.5 9.72283 0.669371 7.82793 0.676512 7.74834L0.679259 7.72404C0.702879 7.53693 0.932858 5.87193 1.72845 5.01577C2.6967 3.96108 3.77958 3.83724 4.29996 3.77777C4.30726 3.77693 4.31445 3.7761 4.32154 3.77529C4.3541 3.77155 4.38442 3.76808 4.41238 3.76435L4.45468 3.76C7.65607 3.53155 12.4477 3.50036 12.4957 3.50018L12.4999 3.5L12.5041 3.50018C12.5521 3.50036 17.3437 3.53155 20.5166 3.76L20.5585 3.76435C20.5942 3.76907 20.6341 3.7736 20.6777 3.7785C21.2041 3.83779 22.2987 3.96144 23.2642 4.97933C24.0996 5.84474 24.3019 7.54617 24.3222 7.73746ZM10.7457 8.91023L16.3303 11.7018C16.6608 11.867 16.8652 12.1833 16.8639 12.5274C16.8624 12.8715 16.6554 13.1864 16.3239 13.3493L10.7392 16.0928C10.5858 16.1682 10.4192 16.2057 10.253 16.2057C10.0715 16.2057 9.89039 16.161 9.72704 16.0718C9.41422 15.9011 9.22754 15.6003 9.22754 15.2675V9.73233C9.22754 9.39793 9.41538 9.09664 9.73032 8.92609C10.0451 8.75572 10.4246 8.74972 10.7457 8.91023Z" fill="white"/>
</svg>