<svg width="100" height="101" viewBox="0 0 100 101" fill="none" xmlns="http://www.w3.org/2000/svg">
<g id="1">
<path id="Vector 407" d="M70.1341 67.398L75.1061 72.5408L85.0503 62.2551M76.1006 87.7245C61.6816 79.398 58.2011 67.398 58.2011 57.3571L76.1006 46.8265M76.1006 87.7245C78.897 86.1096 81.2821 84.3566 83.3101 82.5064M76.1006 87.7245C76.1006 88.9554 76.1006 91.3926 76.1006 93.3571M76.1006 46.8265C76.1006 35.8878 76.1006 13.6184 76.1006 12.051C76.1006 10.0918 75.1061 9.11224 73.1173 9.11224C71.3603 9.11224 22.4544 9.11224 10.2207 9.11224M76.1006 46.8265L83.3101 51.068M10.2207 9.11224C8.60663 9.11224 7.63091 9.11224 7.48603 9.11224C6.24302 9.11224 5 9.60204 5 12.051C5 14.5 5 93.602 5 95.0714C5 96.5408 5 98.5 7.48603 98.5C9.97207 98.5 71.6257 98.5 73.1173 98.5C74.6089 98.5 76.1006 97.5204 76.1006 95.0714C76.1006 94.5893 76.1006 93.9984 76.1006 93.3571M10.2207 9.11224C10.2207 8.45918 10.2207 6.71224 10.2207 4.94898C10.2207 2.7449 11.2151 2.5 13.2039 2.5C15.1927 2.5 76.5978 2.5 79.8296 2.5C83.0615 2.5 83.3101 3.96939 83.3101 4.94898C83.3101 5.73265 83.3101 36.0215 83.3101 51.068M83.3101 51.068L94 57.3571C94 65.4506 91.7387 74.817 83.3101 82.5064M83.3101 82.5064C83.3101 84.0009 83.3101 87.7245 83.3101 90.6633C83.3101 92.6224 82.067 93.3571 80.3268 93.3571C78.9346 93.3571 76.9292 93.3571 76.1006 93.3571M15.4413 75.9694C20.4134 77.4388 23.8939 78.1735 25.6341 74.0102C27.3743 69.8469 23.148 67.6429 21.6564 70.0918C20.1648 72.5408 18.176 77.9286 23.3966 81.1122C28.6173 84.2959 31.6006 76.7041 32.0978 74.0102C32.3464 72.051 33.3408 70.5816 34.3352 73.5204C35.3296 76.4592 37.8156 75.2347 38.3129 73.2755C38.8101 71.3163 39.8045 68.6224 41.0475 67.6429M16.1872 87.4796H38.8101M19.1704 49.2755H62.1788M62.1788 42.6633H19.1704M19.1704 36.5408H62.1788M62.1788 29.9286H19.1704M28.6173 23.8061H52.7318" stroke="white" stroke-width="1.5" stroke-linecap="round"/>
</g>
</svg>
