<svg width="100" height="101" viewBox="0 0 100 101" fill="none" xmlns="http://www.w3.org/2000/svg">
<g id="2">
<ellipse id="Ellipse 107" cx="50.5" cy="39.5" rx="24.5" ry="25" stroke="white" stroke-width="1.5" stroke-linecap="round"/>
<path id="Vector 408" d="M26.8542 30.3285C23.5422 30.3285 17.7559 30.3285 13.5625 30.3285M13.5625 30.3285C11.4692 30.3285 9.77275 30.3285 8.97917 30.3285C6.59583 30.3285 6 32.3434 6 33.3508V38.9306V44.5103C6 45.5177 6.59583 47.5326 8.97917 47.5326H13.5625M13.5625 30.3285C16.7708 27.0737 19.2917 25.9112 19.5208 21.029C19.75 16.1467 20.8958 14.5193 25.7083 13.1244C30.5208 11.7295 31.2083 6.38225 33.7292 5.45229C36.25 4.52234 39.4583 5.91727 42.4375 4.98732C44.9583 4.28986 46.7917 1.5 50 1.5C53.2083 1.5 55.0417 4.28986 57.5625 4.98732C60.5417 5.91727 63.75 4.52234 66.2708 5.45229C68.7917 6.38225 69.4792 11.7295 74.2917 13.1244C79.1042 14.5193 80.25 16.1467 80.4792 21.029C80.7083 25.9112 83.2292 27.0737 86.4375 30.3285M86.4375 30.3285H91.0208C93.4042 30.3285 94 32.3434 94 33.3508V38.9306V44.5103C94 45.5177 93.4042 47.5326 91.0208 47.5326H86.4375M86.4375 30.3285H73.5948M13.5625 47.5326H26.8542M13.5625 47.5326C16.7708 50.7874 19.2917 51.9499 19.5208 56.8321C19.75 61.7144 20.8958 63.3418 25.7083 64.7367C26.1191 64.8558 26.4998 65.0036 26.8542 65.1751M50 76.3611C46.7917 76.3611 44.9583 73.5713 42.4375 72.8738C39.4583 71.9438 36.25 73.3388 33.7292 72.4088C31.4235 71.5582 30.6515 67.0123 26.8542 65.1751M50 76.3611C53.2083 76.3611 55.0417 73.5713 57.5625 72.8738C60.5417 71.9438 63.75 73.3388 66.2708 72.4088C68.7917 71.4789 69.4792 66.1316 74.2917 64.7367C79.1042 63.3418 80.25 61.7144 80.4792 56.8321C80.7083 51.9499 83.2292 50.7874 86.4375 47.5326M50 76.3611L37.6111 97.2949C37.1472 98.0789 35.9622 97.8848 35.7725 96.9939L32.7112 82.6186C32.5912 82.0549 32.0207 81.7091 31.4654 81.8634L16.8841 85.9154C16.0219 86.155 15.3032 85.2282 15.7498 84.4528L26.8542 65.1751M50 76.3611L62.3889 97.2949C62.8528 98.0788 64.0378 97.8848 64.2275 96.9939L67.2888 82.6185C67.4088 82.0548 67.9793 81.709 68.5346 81.8633L83.1159 85.9154C83.9781 86.155 84.6968 85.2282 84.2502 84.4528L73.1458 65.175M86.4375 47.5326H73.5948M59.4675 52.3295L58.5772 43.6925C58.5476 43.4054 58.6435 43.1196 58.8401 42.9084L64.4166 36.9211C64.9658 36.3314 64.6278 35.3677 63.8306 35.2502L55.4452 34.0144C55.1272 33.9676 54.8511 33.7707 54.7032 33.4853L50.8878 26.1248C50.5147 25.4051 49.4853 25.4051 49.1122 26.1248L45.2968 33.4853C45.1489 33.7707 44.8728 33.9676 44.5548 34.0144L36.1694 35.2502C35.3722 35.3677 35.0342 36.3314 35.5834 36.9211L41.1599 42.9084C41.3565 43.1196 41.4524 43.4054 41.4228 43.6925L40.5325 52.3295C40.4518 53.1119 41.2644 53.6768 41.9698 53.3287L49.5574 49.5841C49.8364 49.4465 50.1636 49.4465 50.4426 49.5841L58.0302 53.3287C58.7356 53.6768 59.5482 53.1119 59.4675 52.3295Z" stroke="white" stroke-width="1.5" stroke-linecap="round"/>
</g>
</svg>
