<svg width="83" height="79" viewBox="0 0 83 79" fill="none" xmlns="http://www.w3.org/2000/svg">
<g id="Icon">
<circle id="Ellipse 99" cx="41.334" cy="39.5" r="29.25" stroke="white" stroke-width="1.5"/>
<circle id="Ellipse 100" cx="3.83398" cy="39" r="2.75" stroke="white" stroke-width="1.5"/>
<circle id="Ellipse 105" cx="3.5" cy="3.5" r="2.75" transform="matrix(-1 0 0 1 82.334 35.5)" stroke="white" stroke-width="1.5"/>
<circle id="Ellipse 102" cx="3.83398" cy="63" r="2.75" stroke="white" stroke-width="1.5"/>
<circle id="Ellipse 106" cx="3.5" cy="3.5" r="2.75" transform="matrix(-1 0 0 1 82.334 59.5)" stroke="white" stroke-width="1.5"/>
<circle id="Ellipse 101" cx="3.83398" cy="16" r="2.75" stroke="white" stroke-width="1.5"/>
<circle id="Ellipse 107" cx="3.5" cy="3.5" r="2.75" transform="matrix(-1 0 0 1 82.334 12.5)" stroke="white" stroke-width="1.5"/>
<circle id="Ellipse 103" cx="9.83398" cy="4" r="2.75" stroke="white" stroke-width="1.5"/>
<circle id="Ellipse 108" cx="3.5" cy="3.5" r="2.75" transform="matrix(-1 0 0 1 76.334 0.5)" stroke="white" stroke-width="1.5"/>
<circle id="Ellipse 104" cx="9.83398" cy="75" r="2.75" stroke="white" stroke-width="1.5"/>
<circle id="Ellipse 109" cx="3.5" cy="3.5" r="2.75" transform="matrix(-1 0 0 1 76.334 71.5)" stroke="white" stroke-width="1.5"/>
<path id="Vector 447" d="M7.33398 15.9781H11.0483L16.1911 22.8626M13.0483 3.5H32.0483V10.5279M7.33398 39.3566H11.0483M7.33398 62.8785H11.0483L16.1911 56.4243M13.0483 75.5H32.0483V68.3287M75.334 15.9781H71.6197L66.4768 22.8626M69.6197 3.5H50.6197V10.5279M75.334 39.3566H71.6197M75.334 62.8785H71.6197L66.4768 56.4243M69.6197 75.5H50.6197V68.3287" stroke="white" stroke-width="1.5"/>
<path id="Vector 121" d="M44.0641 38.2692H37.2282M37.2282 38.2692V35.3974M37.2282 38.2692V47.2949H32.0007M37.2282 23.5H25.334V47.2949H32.0007M37.2282 23.5V28.8333M37.2282 23.5H57.334V38.2692H54.1171M48.4874 38.2692H54.1171M54.1171 38.2692V55.5H32.0007V47.2949" stroke="white" stroke-width="1.5"/>
</g>
</svg>
