<svg width="129" height="48" viewBox="0 0 129 48" fill="none" xmlns="http://www.w3.org/2000/svg">
<g id="Company logo" clip-path="url(#clip0_353_46)">
<path id="Vector" d="M44.672 24.0526C44.6762 22.2602 44.1261 20.5103 43.097 19.0428C42.0679 17.5752 40.6102 16.4617 38.9236 15.8549C39.0771 15.0726 39.1545 14.2773 39.1547 13.4801C39.1562 10.8413 38.3209 8.26997 36.7689 6.13585C35.2169 4.00172 33.0281 2.4147 30.5173 1.60296C28.0064 0.79122 25.3029 0.796569 22.7953 1.61824C20.2877 2.43991 18.1052 4.03558 16.5616 6.17583C15.4229 5.29337 14.0275 4.80608 12.587 4.78776C11.1464 4.76944 9.73914 5.2211 8.5783 6.07432C7.41746 6.92754 6.56631 8.13583 6.15377 9.51617C5.74123 10.8965 5.78978 12.3737 6.29207 13.724C4.60152 14.3402 3.14022 15.4593 2.10473 16.9308C1.06924 18.4024 0.509231 20.1557 0.50003 21.955C0.495339 23.7536 1.04832 25.5095 2.08284 26.9808C3.11736 28.4521 4.58255 29.5666 6.27666 30.1707C6.1267 30.9526 6.0502 31.7468 6.04817 32.543C6.04565 35.1787 6.88025 37.7471 8.43163 39.8779C9.98302 42.0087 12.171 43.5918 14.6802 44.3988C17.1893 45.2059 19.8899 45.1953 22.3926 44.3685C24.8953 43.5416 27.0707 41.9414 28.6053 39.7984C29.7407 40.6831 31.1337 41.1733 32.5729 41.1948C34.0121 41.2163 35.4191 40.7678 36.5805 39.9174C37.7418 39.0671 38.5941 37.8611 39.0082 36.4826C39.4222 35.104 39.3754 33.6281 38.8749 32.2785C40.5663 31.6634 42.0286 30.5446 43.0646 29.0729C44.1007 27.6012 44.6608 25.8473 44.6695 24.0475" fill="white"/>
<path id="Vector_2" d="M17.866 19.9499L27.5323 24.3633L37.2884 15.819C37.4289 15.114 37.4986 14.3967 37.4963 13.6778C37.4958 11.3504 36.7505 9.08435 35.3693 7.21111C33.9882 5.33786 32.0438 3.95581 29.8207 3.26718C27.5976 2.57854 25.2124 2.61948 23.0142 3.38401C20.816 4.14853 18.9202 5.59651 17.6042 7.51605L15.979 15.9217L17.866 19.9499Z" fill="#FEC514"/>
<path id="Vector_3" d="M7.86056 30.1862C7.71803 30.9023 7.64665 31.6307 7.64747 32.3608C7.64752 34.6978 8.39669 36.9733 9.78502 38.8533C11.1734 40.7332 13.1278 42.1187 15.3614 42.8062C17.595 43.4938 19.9902 43.4473 22.1954 42.6736C24.4006 41.8998 26.2998 40.4396 27.6141 38.5071L29.2238 30.1195L27.0749 26.0116L17.3728 21.5906L7.86056 30.1862Z" fill="#00BFB3"/>
<path id="Vector_4" d="M7.80169 13.4595L14.4256 15.0231L15.8762 7.49033C14.9752 6.80717 13.8772 6.43423 12.7466 6.42734C11.6159 6.42046 10.5135 6.78 9.60427 7.45214C8.69508 8.12428 8.02807 9.07285 7.70311 10.1558C7.37816 11.2388 7.41274 12.3979 7.80169 13.4595Z" fill="#F04E98"/>
<path id="Vector_5" d="M7.22678 15.0361C5.77343 15.5266 4.50905 16.4577 3.60948 17.7001C2.70991 18.9425 2.21987 20.4343 2.20752 21.9681C2.20648 23.4505 2.65664 24.898 3.49818 26.1184C4.33971 27.3387 5.53275 28.274 6.91869 28.7999L16.2127 20.3994L14.5053 16.7537L7.22678 15.0361Z" fill="#1BA9F5"/>
<path id="Vector_6" d="M29.3139 38.507C30.2134 39.1867 31.3086 39.5573 32.436 39.5633C33.5634 39.5693 34.6625 39.2104 35.5691 38.5403C36.4758 37.8702 37.1414 36.9248 37.4665 35.8453C37.7916 34.7658 37.7588 33.61 37.3729 32.5507L30.7542 31.0103L29.3139 38.507Z" fill="#93C90E"/>
<path id="Vector_7" d="M30.6593 29.267L37.9456 30.9692C39.3998 30.4801 40.665 29.5493 41.5648 28.3066C42.4646 27.064 42.954 25.5714 42.9648 24.0373C42.9635 22.558 42.5125 21.1141 41.6715 19.8972C40.8305 18.6802 39.6394 17.7477 38.2562 17.2234L28.7261 25.5674L30.6593 29.267Z" fill="#0077CC"/>
<g id="Vector_8">
<path d="M62.2613 31.9115L63.1444 31.8216L63.2061 33.6188C61.2408 33.9156 59.2576 34.0785 57.2702 34.1066C55.0794 34.1066 53.527 33.4725 52.613 32.2042C51.699 30.9359 51.2429 28.9624 51.2446 26.2837C51.2446 20.9487 53.3652 18.2803 57.6066 18.2786C59.6605 18.2786 61.1924 18.852 62.2022 19.9988C63.212 21.1455 63.7187 22.9427 63.7221 25.3903L63.6014 27.1259H53.5578C53.5578 28.8101 53.8625 30.0578 54.4718 30.8691C55.0811 31.6804 56.1406 32.0861 57.6502 32.0861C59.1633 32.0912 60.7003 32.033 62.2613 31.9115ZM61.4397 25.3081C61.4397 23.4408 61.141 22.122 60.5437 21.3518C59.9463 20.5816 58.9724 20.1956 57.622 20.1939C56.2715 20.1939 55.2566 20.5995 54.5771 21.4108C53.8975 22.2221 53.5475 23.5212 53.527 25.3081H61.4397Z" fill="#1C1E23"/>
<path d="M66.9057 33.9859V13.9603H69.1881V33.9859H66.9057Z" fill="#1C1E23"/>
<path d="M83.563 23.1772V30.8537C83.563 31.6239 85.4578 31.5828 85.4578 31.5828L85.3422 33.6008C83.7376 33.6008 82.4103 33.7343 81.6144 32.9615C79.8908 33.727 78.024 34.1165 76.1381 34.104C74.7398 34.104 73.6743 33.7078 72.9417 32.9153C72.2092 32.1229 71.8438 30.9838 71.8455 29.4981C71.8455 28.0159 72.2212 26.9247 72.9725 26.2247C73.7239 25.5246 74.9007 25.0968 76.5027 24.941L81.2806 24.4866V23.1772C81.2806 22.1502 81.0581 21.4091 80.6131 20.9538C80.3692 20.7249 80.0816 20.5478 79.7674 20.4331C79.4532 20.3184 79.1191 20.2684 78.7851 20.2863H72.7877V18.276H78.6336C80.3589 18.276 81.6118 18.6723 82.3923 19.4647C83.1728 20.2572 83.563 21.4947 83.563 23.1772ZM74.1844 29.3852C74.1844 31.2525 74.9546 32.1862 76.495 32.1862C77.8847 32.1846 79.2641 31.9476 80.5746 31.4853L81.2729 31.2414V26.2196L76.7774 26.6457C75.8634 26.7279 75.2036 26.9915 74.798 27.4365C74.3923 27.8815 74.1878 28.5311 74.1844 29.3852Z" fill="#1C1E23"/>
<path d="M92.4742 20.3171C90.2611 20.3171 89.1546 21.0873 89.1546 22.6278C89.1546 23.3398 89.4113 23.8421 89.9248 24.1348C90.4383 24.4275 91.5945 24.7322 93.3934 25.0488C95.2008 25.3655 96.4794 25.8071 97.229 26.3736C97.9787 26.9401 98.3544 28.0047 98.3561 29.5674C98.3561 31.1318 97.8538 32.2786 96.8491 33.0077C95.8444 33.7369 94.3784 34.1023 92.4511 34.104C91.1931 34.104 86.9928 33.6368 86.9928 33.6368L87.1161 31.6599C89.5294 31.8909 91.2727 32.0629 92.4511 32.0629C93.6296 32.0629 94.5256 31.8755 95.1443 31.5007C95.7631 31.1258 96.0711 30.4968 96.0711 29.6136C96.0711 28.7305 95.8144 28.1323 95.2804 27.8165C94.7464 27.5007 93.5962 27.2029 91.8118 26.9179C90.0275 26.6329 88.7566 26.217 88.007 25.6701C87.2573 25.1233 86.8799 24.1066 86.8799 22.6252C86.8799 21.1438 87.3934 20.0578 88.4486 19.3389C89.5038 18.6201 90.7977 18.2735 92.3587 18.2735C93.5962 18.2735 97.8914 18.5893 97.8914 18.5893V20.579C95.6244 20.4789 93.7708 20.3171 92.4742 20.3171Z" fill="#1C1E23"/>
<path d="M109.358 20.5585H104.518V27.8344C104.518 29.5786 104.645 30.7245 104.898 31.2722C105.155 31.8216 105.755 32.0938 106.708 32.0938L109.417 31.9115L109.571 33.7985C108.545 33.9881 107.507 34.1005 106.464 34.1348C104.883 34.1348 103.787 33.7489 103.178 32.9769C102.568 32.205 102.265 30.7339 102.266 28.5636V20.5585H100.115V18.5816H102.277V13.9243H104.528V18.5816H109.358V20.5585Z" fill="#1C1E23"/>
<path d="M112.531 16.6381V13.9885H114.813V16.6381H112.531ZM112.531 33.9859V18.5816H114.813V33.9859H112.531Z" fill="#1C1E23"/>
<path d="M124.7 18.276C125.84 18.3247 126.976 18.4473 128.1 18.6432L128.829 18.733L128.739 20.5893C127.546 20.4381 126.346 20.3473 125.144 20.3171C123.419 20.3171 122.248 20.7279 121.63 21.5495C121.012 22.371 120.702 23.8926 120.7 26.1143C120.7 28.3394 120.99 29.8867 121.568 30.7561C122.147 31.6256 123.353 32.0621 125.188 32.0655L128.782 31.7934L128.875 33.6804C127.476 33.9174 126.062 34.0598 124.644 34.1066C122.272 34.1066 120.634 33.4973 119.73 32.2786C118.826 31.06 118.374 29.006 118.374 26.1169C118.374 23.226 118.861 21.1969 119.835 20.0296C120.809 18.8623 122.431 18.2778 124.7 18.276Z" fill="#1C1E23"/>
</g>
</g>
<defs>
<clipPath id="clip0_353_46">
<rect width="128" height="48" fill="white" transform="translate(0.5)"/>
</clipPath>
</defs>
</svg>
