<svg width="165" height="48" viewBox="0 0 165 48" fill="none" xmlns="http://www.w3.org/2000/svg">
<g id="Company logo" clip-path="url(#clip0_353_56)">
<path id="Vector" d="M40.1255 32.5723L41.14 32.3634C42.0352 32.1247 42.2739 32.0054 42.2739 30.215V16.161C42.2739 14.3707 42.0053 14.2215 41.14 14.0126L40.1255 13.8037V12.9683H56.2981L56.5965 18.9062H55.6715C54.9255 17.265 54.4481 16.3997 54.0005 15.7433C53.0456 14.3707 52.419 14.2513 50.3602 14.2513C48.8384 14.2513 48.0924 14.4304 47.6448 14.5497V22.1586H48.4505C50.5392 22.1586 51.0166 21.9199 51.3747 21.2634C51.7924 20.5175 52.0311 19.9505 52.2997 18.9957H53.1948V26.6941H52.2997C52.0311 25.7691 51.7924 25.1723 51.3747 24.307C51.0166 23.561 50.6287 23.4118 48.4505 23.4118H47.6448V29.1408C47.6448 31.7965 47.7344 32.0949 50.6287 32.0949C53.0158 32.0949 53.4932 31.7965 54.4779 30.3344C55.015 29.5287 55.5819 28.2755 56.3577 26.3957H57.3126L56.8948 33.4078H40.1553L40.1255 32.5723ZM59.819 21.3828C59.1327 19.7118 58.8045 19.2941 58.0585 19.0554L57.4916 18.8763V18.1005H66.3537V18.8763L65.5481 19.0852C64.9215 19.2642 64.6231 19.5626 64.6231 20.2787C64.6231 20.6965 64.7723 21.2037 65.011 21.8602L67.4876 28.6634H67.6368L70.0239 21.8602C70.2924 21.1441 70.4118 20.6368 70.4118 20.2191C70.4118 19.5626 70.1134 19.2344 69.4868 19.0852L68.6811 18.8763V18.1005H74.1416V18.8763L73.5747 19.0554C72.7989 19.3239 72.4706 19.7715 71.7545 21.711L67.1892 33.4078H64.6827L59.819 21.3828ZM73.4553 25.6796C73.4553 20.5473 77.2448 17.7126 81.1537 17.7126C85.2118 17.7126 87.7481 19.7416 87.8376 25.0828H78.0803C78.1698 29.9166 79.99 31.2296 83.0335 31.2296C84.8537 31.2296 86.2561 30.6925 87.3602 30.1255V31.1102C86.3158 32.2441 84.0779 33.7957 81.1239 33.7957C75.9916 33.736 73.4553 30.6925 73.4553 25.6796ZM78.0803 23.9489L83.1231 23.6804C83.1231 20.1296 82.6456 18.8166 80.8852 18.8166C79.3932 18.8166 78.1997 20.2489 78.0803 23.9489ZM95.5956 19.9804C96.4311 19.0852 98.1319 17.6231 100.101 17.6231C101.355 17.6231 102.399 18.6376 102.399 19.9207C102.399 21.2037 101.384 22.2183 100.101 22.2183C99.1763 22.2183 98.3408 21.6513 98.0126 20.8457C97.8335 20.5175 97.4456 20.4279 97.1771 20.4279C96.64 20.4279 96.0134 20.8158 95.6255 21.1739V30.7223C95.6255 32.0949 95.7448 32.2441 96.64 32.3933L97.6247 32.6021V33.4078H89.1206V32.6021L89.8965 32.3933C90.8811 32.1247 91.0005 31.9755 91.0005 30.7223V21.5618C91.0005 20.3086 90.8513 20.2191 90.0158 19.6521L89.0311 18.9957V18.3989L95.2376 17.6828L95.5658 17.9215L95.5061 19.9505L95.5956 19.9804ZM103.294 32.6021L104.07 32.3933C105.055 32.1247 105.174 31.9755 105.174 30.7223V21.5618C105.174 20.3086 105.025 20.2191 104.189 19.6521L103.205 18.9957V18.3989L109.411 17.6828L109.739 17.8916L109.68 19.7715H109.799C111.35 18.6675 113.29 17.6828 115.438 17.6828C117.945 17.6828 119.288 18.9658 119.288 21.6215V30.6925C119.288 31.9755 119.407 32.1247 120.362 32.3634L121.138 32.5723V33.3779H112.932V32.5723L113.648 32.3933C114.543 32.1546 114.633 32.065 114.633 30.6925V22.7852C114.633 20.9949 113.976 20.4279 112.604 20.4279C111.559 20.4279 110.515 20.6666 109.859 20.8158V30.7223C109.859 32.1247 109.948 32.1844 110.843 32.4231L111.559 32.6021V33.4078H103.354V32.6021H103.294ZM121.705 25.7691C121.705 20.1296 125.703 17.7126 129.671 17.7126C133.938 17.7126 137.668 20.2787 137.668 25.6199C137.668 31.2594 133.73 33.736 129.671 33.736C125.405 33.736 121.705 31.1699 121.705 25.7691ZM132.715 25.9183C132.715 19.9804 131.581 18.8465 129.552 18.8465C127.702 18.8465 126.598 20.1892 126.598 25.2618C126.598 31.2892 127.583 32.6021 129.731 32.6021C131.492 32.6021 132.715 31.5578 132.715 25.9183ZM140.205 29.6779V19.8312H138.355V19.115C140.652 18.2199 142.413 16.5191 143.248 14.1618H144.919V18.1005H148.828L148.44 19.8312H144.919V29.3796C144.919 30.8416 145.367 31.4384 146.829 31.4384C147.545 31.4384 148.41 31.2892 148.947 31.1699V32.0054C148.231 32.6618 146.769 33.736 144.292 33.736C141.637 33.736 140.205 32.5723 140.205 29.6779ZM149.544 25.6796C149.544 20.5473 153.334 17.7126 157.242 17.7126C161.3 17.7126 163.837 19.7416 163.926 25.0828H154.199C154.288 29.9166 156.109 31.2296 159.152 31.2296C160.972 31.2296 162.375 30.6925 163.479 30.1255V31.1102C162.434 32.2441 160.196 33.7957 157.242 33.7957C152.08 33.736 149.544 30.6925 149.544 25.6796ZM154.169 23.9489L159.212 23.6804C159.212 20.1296 158.734 18.8166 156.974 18.8166C155.482 18.8166 154.288 20.2489 154.169 23.9489Z" fill="black"/>
<path id="Vector_2" d="M10.2277 15.2655C10.2277 15.6236 10.1979 16.2203 9.83984 16.6082C9.45194 16.9663 8.85516 16.9961 8.4971 16.9961H4.67775C3.57371 16.9961 2.91726 16.9961 2.46968 17.0558C2.23097 17.0857 1.93259 17.205 1.78339 17.2647C1.72371 17.2945 1.72371 17.2647 1.75355 17.2348L10.4665 8.37275C10.4963 8.34291 10.5261 8.34291 10.4963 8.40259C10.4366 8.55178 10.3173 8.85017 10.2874 9.08888C10.2277 9.53646 10.2277 10.1929 10.2277 11.2969V15.2655ZM18.3439 42.0606C17.3294 41.4042 16.7923 40.5389 16.5834 40.0018C16.3745 39.4945 16.2552 38.9276 16.2552 38.3607C16.2552 35.884 18.2842 33.855 20.7906 33.855C21.5366 33.855 22.1334 34.4518 22.1334 35.1978C22.1334 35.705 21.8648 36.1227 21.4471 36.3615C21.2979 36.451 21.089 36.5107 20.9398 36.5405C20.7906 36.5703 20.2237 36.63 19.9552 36.8687C19.6568 37.1074 19.4181 37.4953 19.4181 37.9131C19.4181 38.3607 19.5971 38.7784 19.8955 39.0768C20.4326 39.6139 21.1487 39.9123 21.9245 39.9123C23.9535 39.9123 25.5947 38.2711 25.5947 36.2421C25.5947 34.4219 24.3713 32.8107 22.76 32.0945C22.5213 31.9752 22.1334 31.8857 21.7753 31.7961C21.3277 31.7066 20.91 31.6469 20.8802 31.6469C19.6269 31.4977 16.4939 30.5131 16.285 27.7381C16.285 27.7381 15.36 31.9155 13.51 33.0494C13.331 33.1389 13.0923 33.2284 12.8237 33.2881C12.5552 33.3477 12.2568 33.3776 12.1673 33.3776C9.15355 33.5566 5.96081 32.6018 3.75275 30.334C3.75275 30.334 2.26081 29.1107 1.485 25.6792C1.30597 24.8437 0.947908 23.3518 0.739037 21.9494C0.649521 21.4421 0.619682 21.0542 0.589844 20.6961C0.589844 19.234 1.485 18.2494 2.61888 18.1002C2.64871 18.1002 2.73823 18.1002 2.79791 18.1002C3.4842 18.1002 8.70597 18.1002 8.70597 18.1002C9.75033 18.1002 10.3471 17.8316 10.735 17.4736C11.2423 16.9961 11.3616 16.3098 11.3616 15.5042C11.3616 15.5042 11.3616 10.0736 11.3616 9.38726C11.3616 9.35742 11.3616 9.23807 11.3616 9.20823C11.5108 8.1042 12.4955 7.1792 13.9576 7.1792C13.9576 7.1792 14.4052 7.1792 14.6737 7.1792C14.9721 7.1792 15.3302 7.20904 15.6584 7.23888C15.8971 7.26872 16.106 7.32839 16.464 7.41791C18.2842 7.86549 18.6721 9.71549 18.6721 9.71549C18.6721 9.71549 22.1035 10.3123 23.8342 10.6107C25.4753 10.909 29.5334 11.1776 30.3092 15.2655C32.1294 24.9929 31.0253 34.4219 30.9358 34.4219C29.6527 43.6123 22.014 43.1647 22.014 43.1647C20.3729 43.1647 19.1495 42.6276 18.3439 42.0606ZM25.2068 22.5163C24.2221 22.4268 23.3866 22.8147 23.0882 23.5607C23.0285 23.7098 22.9689 23.8889 22.9987 23.9784C23.0285 24.0679 23.0882 24.0977 23.1479 24.1276C23.506 24.3066 24.1027 24.3961 24.9681 24.4857C25.8334 24.5752 26.4302 24.6348 26.8181 24.5752C26.8777 24.5752 26.9374 24.5453 26.9971 24.4558C27.0568 24.3663 27.0269 24.1873 27.0269 24.0381C26.9076 23.2026 26.1914 22.6357 25.2068 22.5163Z" fill="#00A82D"/>
</g>
<defs>
<clipPath id="clip0_353_56">
<rect width="164" height="48" fill="white" transform="translate(0.5)"/>
</clipPath>
</defs>
</svg>
