<svg width="129" height="48" viewBox="0 0 129 48" fill="none" xmlns="http://www.w3.org/2000/svg">
<g clip-path="url(#clip0_721_1296)">
<path fill-rule="evenodd" clip-rule="evenodd" d="M100.092 31.6179C103.391 31.6179 106.074 28.9879 106.074 25.7553C106.074 22.5226 103.391 19.8926 100.092 19.8926C96.7933 19.8926 94.1095 22.5226 94.1095 25.7553C94.1095 28.9879 96.7933 31.6179 100.092 31.6179ZM106.074 11.1855H106.236H108.908V34.4152H106.074V32.0958C104.438 33.5815 102.329 34.3953 100.092 34.3953C95.2307 34.3953 91.2757 30.5194 91.2757 25.7553C91.2757 20.9909 95.2307 17.1151 100.092 17.1151C102.329 17.1151 104.438 17.9289 106.074 19.4147V11.1855ZM41.3164 31.5156C44.615 31.5156 47.2986 28.8856 47.2986 25.6529C47.2986 22.4203 44.615 19.7904 41.3164 19.7904C38.0177 19.7904 35.3341 22.4203 35.3341 25.6529C35.3341 28.8856 38.0177 31.5156 41.3164 31.5156ZM35.3341 19.3127C36.9697 17.8269 39.0793 17.013 41.3164 17.013C46.1776 17.013 50.1326 20.8889 50.1326 25.6529C50.1326 30.4171 46.1776 34.293 41.3164 34.293C39.0793 34.293 36.9697 33.4793 35.3341 31.9933V40.2226H32.5V16.993H35.3341V19.3127ZM55.5402 24.3039C56.178 21.6785 58.5547 19.7934 61.2656 19.7934C63.9412 19.7934 66.1824 21.6383 66.7797 24.3039H55.5402ZM61.2656 16.993C56.4772 16.993 52.5817 20.9009 52.5817 25.7041C52.5817 30.5074 56.4772 34.4152 61.2656 34.4152C63.9471 34.4152 66.4082 33.4081 68.0188 31.6523L68.8556 30.7396L68.9634 30.6218L68.8461 30.5132L67.0268 28.8346L66.9095 28.7261L66.801 28.8439L65.9643 29.7567C64.897 30.9202 63.1406 31.6149 61.2656 31.6149C58.5547 31.6149 56.1782 29.7298 55.5402 27.1042H69.7243V25.7041C69.7243 20.8193 66.0087 16.993 61.2656 16.993ZM125.666 25.7041C125.666 28.9633 122.982 31.6149 119.683 31.6149C116.385 31.6149 113.701 28.9633 113.701 25.7041C113.701 22.4448 116.385 19.7933 119.683 19.7933C122.982 19.7933 125.666 22.4448 125.666 25.7041ZM119.683 16.993C114.822 16.993 110.867 20.9007 110.867 25.7041C110.867 30.5074 114.822 34.4152 119.683 34.4152C124.545 34.4152 128.5 30.5074 128.5 25.7041C128.5 20.9007 124.545 16.993 119.683 16.993ZM80.2547 16.993C78.2855 16.993 76.4093 17.7429 74.9326 19.1125V16.993H72.1735V34.4152H74.9326V25.5243C74.9326 22.3523 77.3201 19.7715 80.2547 19.7715C83.1898 19.7715 85.5779 22.3523 85.5779 25.5243V34.4152H88.3364V25.5243C88.3364 20.8202 84.711 16.993 80.2547 16.993Z" fill="#1A2022"/>
<path fill-rule="evenodd" clip-rule="evenodd" d="M0.5 27.7772H13.8333V40.8143L27.1667 27.7772V14.7402H13.8333L0.5 27.7772Z" fill="#FF4876"/>
</g>
<defs>
<clipPath id="clip0_721_1296">
<rect width="128" height="48" fill="white" transform="translate(0.5)"/>
</clipPath>
</defs>
</svg>
